<?xml version="1.0" encoding="UTF-8" standalone="no"?>
<!-- Generator: Adobe Illustrator 18.1.0, SVG Export Plug-In . SVG Version: 6.00 Build 0)  -->

<svg
   version="1.1"
   id="Calque_1"
   x="0px"
   y="0px"
   viewBox="0 0 32 32"
   enable-background="new 0 0 32 32"
   xml:space="preserve"
   xmlns="http://www.w3.org/2000/svg"
   xmlns:svg="http://www.w3.org/2000/svg"><defs
   id="defs706" />
<path
   fill-rule="evenodd"
   clip-rule="evenodd"
   fill="#F2F2F2"
   d="M26,32H6c-3.3,0-6-2.7-6-6V6c0-3.3,2.7-6,6-6h20c3.3,0,6,2.7,6,6  v20C32,29.3,29.3,32,26,32z"
   id="path659" />
<path
   fill-rule="evenodd"
   clip-rule="evenodd"
   fill="#4D4D4D"
   d="M28,6c0-1.1-0.9-2-2-2H6C4.9,4,4,4.9,4,6v20c0,1.1,0.9,2,2,2h20  c1.1,0,2-0.9,2-2V6z"
   id="path661" />

<g
   id="g673">
</g>
<g
   id="g675">
</g>
<g
   id="g677">
</g>
<g
   id="g679">
</g>
<g
   id="g681">
</g>
<g
   id="g683">
</g>
<g
   id="g685">
</g>
<g
   id="g687">
</g>
<g
   id="g689">
</g>
<g
   id="g691">
</g>
<g
   id="g693">
</g>
<g
   id="g695">
</g>
<g
   id="g697">
</g>
<g
   id="g699">
</g>
<g
   id="g701">
</g>
<rect
   style="fill:none;stroke:#ffffff;stroke-width:1.5;stroke-linecap:round;stroke-dasharray:none"
   id="rect1197"
   width="17.458458"
   height="17.458458"
   x="7.1934299"
   y="6.9381723"
   ry="2.1458371" /><rect
   style="fill:none;stroke:#ffffff;stroke-width:1.5;stroke-linecap:round;stroke-dasharray:none"
   id="rect1774"
   width="17.458458"
   height="6.6479607"
   x="7.1934299"
   y="17.748669"
   ry="1.7275306" /><circle
   style="fill:#ffffff;stroke:none;stroke-width:1.5;stroke-linecap:round;stroke-dasharray:none"
   id="path1828"
   cx="21.224644"
   cy="21.072649"
   r="0.95399094" /></svg>
