<?xml version="1.0" encoding="utf-8"?>
<svg viewBox="0 0 1024 1024" width="1024px" height="1024px" xmlns="http://www.w3.org/2000/svg" xmlns:bx="https://boxy-svg.com">
  <defs>
    <bx:grid x="0" y="0" width="8" height="8"/>
    <bx:guide x="512" y="512" angle="90"/>
    <bx:guide x="512" y="512" angle="0"/>
    <linearGradient id="_Linear2" x1="0" y1="0" x2="1" y2="0" gradientUnits="userSpaceOnUse" gradientTransform="matrix(1024, -512.000977, 297.822027, 565.284731, 0, 512.000977)">
      <stop offset="0" style="stop-color:rgb(136,184,89);stop-opacity:1"/>
      <stop offset="1" style="stop-color:rgb(91,154,48);stop-opacity:1"/>
    </linearGradient>
    <filter id="drop-shadow-filter-0" x="-500%" y="-500%" width="1000%" height="1000%" bx:preset="drop-shadow 1 0 0 20 0.5 rgba(0,0,0,0.3)">
      <feGaussianBlur in="SourceAlpha" stdDeviation="20"/>
      <feOffset dx="0" dy="0"/>
      <feComponentTransfer result="offsetblur">
        <feFuncA id="spread-ctrl" type="linear" slope="1"/>
      </feComponentTransfer>
      <feFlood flood-color="rgba(0,0,0,0.3)"/>
      <feComposite in2="offsetblur" operator="in"/>
      <feMerge>
        <feMergeNode/>
        <feMergeNode in="SourceGraphic"/>
      </feMerge>
    </filter>
    <clipPath id="clip-0">
      <rect width="824" height="824" style="fill: none;" rx="184" ry="184" x="100" y="100"/>
    </clipPath>
    <filter id="inner-shadow-filter-0" x="-500%" y="-500%" width="1000%" height="1000%" bx:preset="inner-shadow 1 0 0 30 0.55 rgba(136,96,66,1)">
      <feOffset dx="0" dy="0"/>
      <feGaussianBlur stdDeviation="30"/>
      <feComposite operator="out" in="SourceGraphic"/>
      <feComponentTransfer result="choke">
        <feFuncA type="linear" slope="1.1"/>
      </feComponentTransfer>
      <feFlood flood-color="rgba(136,96,66,1)" result="color"/>
      <feComposite operator="in" in="color" in2="choke" result="shadow"/>
      <feComposite operator="over" in="shadow" in2="SourceGraphic"/>
    </filter>
    <filter id="drop-shadow-filter-1" x="-500%" y="-500%" width="1000%" height="1000%" bx:preset="drop-shadow 1 0 0 15 0.35 rgba(0,0,0,0.3)">
      <feGaussianBlur in="SourceAlpha" stdDeviation="15"/>
      <feOffset dx="0" dy="0"/>
      <feComponentTransfer result="offsetblur">
        <feFuncA id="spread-ctrl" type="linear" slope="0.7"/>
      </feComponentTransfer>
      <feFlood flood-color="rgba(0,0,0,0.3)"/>
      <feComposite in2="offsetblur" operator="in"/>
      <feMerge>
        <feMergeNode/>
        <feMergeNode in="SourceGraphic"/>
      </feMerge>
    </filter>
  </defs>
  <g style="filter: url(#drop-shadow-filter-1);">
    <g style="filter: url(#inner-shadow-filter-0);">
      <g>
        <rect x="100" y="100" width="824" height="824" style="fill: rgb(180, 128, 87);" rx="184" ry="184"/>
        <g style="clip-path: url(#clip-0);">
          <path d="M -512 512.001 L -100 924.001 L -924.001 924.001 L -512 512.001 Z" style="fill-opacity: 0.15;" transform="matrix(-1, 0, 0, 1, 0, 0)" bx:shape="triangle -924.001 512.001 824.001 412 0.5 0 1@ac664f64"/>
          <path d="M 1748.003 -410.059 L 2160.004 1.941 L 1336.002 1.941 L 1748.003 -410.059 Z" style="fill-opacity: 0.25;" transform="matrix(0, 1, 1, 0, 922.060001, -1236.001925)" bx:shape="triangle 1336.002 -410.059 824.002 412 0.5 0 1@67d0554d"/>
          <path d="M 512 450 L 564.5 500 L 512 550 L 459.5 500 Z" style="fill: rgb(114, 177, 71);" bx:shape="n-gon 512 500 52.5 50 4 0 1@abba8bdb"/>
          <path d="M 512.001 512.001 L 414.89 501.167 L 345.352 407.734 L 275.809 396.943 L 206.271 303.511 L 136.73 292.722 L 100.002 203.985 L 100.002 100 L 924.001 100 L 924.001 203.985 L 887.273 292.722 L 817.732 303.511 L 748.194 396.943 L 678.651 407.734 L 609.113 501.167 L 512.001 512.001 Z" style="fill: url(#_Linear2); fill-rule: nonzero; filter: url(#drop-shadow-filter-0);"/>
          <path d="M 512 -512 L 924 -100 L 100 -100 L 512 -512 Z" style="fill-opacity: 0.02;" transform="matrix(1, 0, 0, -1, 0, 0)" bx:shape="triangle 100 -512 824 412 0.5 0 1@02bce742"/>
        </g>
      </g>
    </g>
  </g>
</svg>