<?xml version="1.0" encoding="UTF-8" standalone="no"?>
<!-- Generator: Adobe Illustrator 18.1.0, SVG Export Plug-In . SVG Version: 6.00 Build 0)  -->

<svg
   version="1.1"
   id="Calque_1"
   x="0px"
   y="0px"
   viewBox="0 0 32 32"
   enable-background="new 0 0 32 32"
   xml:space="preserve"
   xmlns="http://www.w3.org/2000/svg"
   xmlns:svg="http://www.w3.org/2000/svg"><defs
   id="defs2339" />



<g
   id="g2306">
</g>
<g
   id="g2308">
</g>
<g
   id="g2310">
</g>
<g
   id="g2312">
</g>
<g
   id="g2314">
</g>
<g
   id="g2316">
</g>
<g
   id="g2318">
</g>
<g
   id="g2320">
</g>
<g
   id="g2322">
</g>
<g
   id="g2324">
</g>
<g
   id="g2326">
</g>
<g
   id="g2328">
</g>
<g
   id="g2330">
</g>
<g
   id="g2332">
</g>
<g
   id="g2334">
</g>
<path
   fill-rule="evenodd"
   clip-rule="evenodd"
   fill="#f2f2f2"
   d="m 26.077341,32.020895 h -20 c -3.3,0 -6.00000002,-2.7 -6.00000002,-6 V 6.0208954 c 0,-3.3 2.70000002,-5.99999999 6.00000002,-5.99999999 h 20 c 3.3,0 6,2.69999999 6,5.99999999 V 26.020895 c 0,3.3 -2.7,6 -6,6 z"
   id="path659"
   style="fill:#000000;fill-opacity:1" /><path
   fill-rule="evenodd"
   clip-rule="evenodd"
   fill="#4d4d4d"
   d="m 28.077341,6.0208954 c 0,-1.1 -0.9,-2 -2,-2 h -20 c -1.1,0 -2,0.9 -2,2 V 26.020895 c 0,1.1 0.9,2 2,2 h 20 c 1.1,0 2,-0.9 2,-2 z"
   id="path661"
   style="fill:#f2f2f2;fill-opacity:1;stroke:none;stroke-opacity:1" /><rect
   style="fill:none;fill-opacity:1;stroke:#666666;stroke-width:1.5;stroke-linecap:round;stroke-dasharray:none;stroke-opacity:1"
   id="rect1197"
   width="17.458458"
   height="17.458458"
   x="7.270771"
   y="6.9590669"
   ry="2.1458371" /><rect
   style="fill:none;stroke:#666666;stroke-width:1.5;stroke-linecap:round;stroke-dasharray:none;stroke-opacity:1"
   id="rect1774"
   width="17.458458"
   height="6.6479607"
   x="7.270771"
   y="17.769564"
   ry="1.7275306" /><circle
   style="fill:#666666;stroke:none;stroke-width:1.5;stroke-linecap:round;stroke-dasharray:none;stroke-opacity:1;fill-opacity:1"
   id="path1828"
   cx="21.301985"
   cy="21.093542"
   r="0.95399094" /></svg>
