<?xml version="1.0" encoding="UTF-8" standalone="no"?>
<!-- Generator: Adobe Illustrator 18.1.0, SVG Export Plug-In . SVG Version: 6.00 Build 0)  -->

<svg
   version="1.1"
   id="Calque_1"
   x="0px"
   y="0px"
   viewBox="0 0 32 32"
   enable-background="new 0 0 32 32"
   xml:space="preserve"
   xmlns="http://www.w3.org/2000/svg"
   xmlns:svg="http://www.w3.org/2000/svg"><defs
   id="defs4421" />
<path
   fill-rule="evenodd"
   clip-rule="evenodd"
   fill="#3366CC"
   d="M26,32H6c-3.3,0-6-2.7-6-6V6c0-3.3,2.7-6,6-6h20c3.3,0,6,2.7,6,6  v20C32,29.3,29.3,32,26,32z"
   id="path4374" />
<path
   fill-rule="evenodd"
   clip-rule="evenodd"
   fill="#DAEEFF"
   d="M28,6c0-1.1-0.9-2-2-2H6C4.9,4,4,4.9,4,6v20c0,1.1,0.9,2,2,2h20  c1.1,0,2-0.9,2-2V6z"
   id="path4376" />

<g
   id="g4388">
</g>
<g
   id="g4390">
</g>
<g
   id="g4392">
</g>
<g
   id="g4394">
</g>
<g
   id="g4396">
</g>
<g
   id="g4398">
</g>
<g
   id="g4400">
</g>
<g
   id="g4402">
</g>
<g
   id="g4404">
</g>
<g
   id="g4406">
</g>
<g
   id="g4408">
</g>
<g
   id="g4410">
</g>
<g
   id="g4412">
</g>
<g
   id="g4414">
</g>
<g
   id="g4416">
</g>
<g
   id="g3784"
   transform="translate(0.07734108,0.33259869)"
   style="stroke:#666666;stroke-opacity:1"><rect
     style="fill:none;stroke:#666666;stroke-width:1.5;stroke-linecap:round;stroke-dasharray:none;stroke-opacity:1"
     id="rect1197"
     width="17.458458"
     height="17.458458"
     x="7.1934299"
     y="6.9381723"
     ry="2.1458371" /><rect
     style="fill:none;stroke:#666666;stroke-width:1.5;stroke-linecap:round;stroke-dasharray:none;stroke-opacity:1"
     id="rect1774"
     width="17.458458"
     height="6.6479607"
     x="7.1934299"
     y="17.748669"
     ry="1.7275306" /><circle
     style="fill:#666666;stroke:none;stroke-width:1.5;stroke-linecap:round;stroke-dasharray:none;stroke-opacity:1;fill-opacity:1"
     id="path1828"
     cx="21.224644"
     cy="21.072649"
     r="0.95399094" /></g></svg>
