<?xml version="1.0" encoding="UTF-8"?>
<!-- Created with Inkscape (http://www.inkscape.org/) -->
<svg width="64" height="64" version="1.1" viewBox="0 0 16.933 16.933" xml:space="preserve" xmlns="http://www.w3.org/2000/svg" xmlns:xlink="http://www.w3.org/1999/xlink"><g><path d="m13.372 16.016 3.0319-9.3244c-4.1862 0-7.9377 5.7628-7.9377 5.7628z" fill="#005ce0"/><path d="m8.4667 0.9288 7.9377 5.7628c-2.1961 2.567-4.1086 5.5415-7.9377 5.7628-2.9606-3.7938-1.2048-7.7627 1e-6 -11.526z" fill="#a4e8fc"/><path d="m8.4667 12.454c2.4855 0.27223 3.7889 1.8165 4.9058 3.5616h-9.8115z" fill="#0064e0"/><path d="m3.5609 16.016-3.0319-9.3244 7.9377 5.7628c-0.76337 1.8406-2.4365 2.9995-4.9057 3.5616z" fill="#0070e4"/><path d="m0.52899 6.6916 7.9377-5.7628c-0.98932 3.7477-2.2594 7.4687-8e-7 11.526-3.1112-1.1771-5.8893-2.8865-7.9377-5.7628z" fill="#007ce8"/><ellipse cx="9.2233" cy="6.6916" rx="1.5994" ry="1.5983" fill="#2f3136"/><path d="m14.203 5.0934c-2.0965-0.82679-4.2741-1.2978-6.6474-0.5628-0.66211-1.09-0.38001-2.4405 0.91119-3.6018z" fill="#0064e0"/><ellipse transform="rotate(90)" cx="6.3718" cy="-8.9034" rx=".84785" ry=".84847" fill="#fff"/><ellipse cx="13.045" cy="6.6916" rx="1.5994" ry="1.5983" fill="#2f3136"/><ellipse transform="rotate(90)" cx="6.3718" cy="-12.725" rx=".84785" ry=".84847" fill="#fff"/></g><g transform="matrix(1.209 0 0 1.2081 -1.4073 -1.2421)" stroke="#2f3136" stroke-linecap="round" stroke-linejoin="round" stroke-width=".26458"><path d="m9.844 8.6651h1.0584" fill="#2f3136"/><path d="m9.844 8.4887v0.35273" fill="#2f3136"/><path d="m10.902 8.4887v0.35273" fill="none"/></g><path d="m10.451 2.3695c-0.058239-1.064 0.61966-1.2873 1.0417-1.8029" fill-opacity="0" stroke="#0064e0" stroke-linecap="round" stroke-linejoin="round" stroke-width=".31977"/><path d="m12.436 3.8102c0.09435-1.4083 0.60892-1.273 1.0417-1.8029" fill="none" stroke="#0064e0" stroke-linecap="round" stroke-linejoin="round" stroke-width=".31977"/><ellipse cx="11.493" cy=".56662" rx=".31989" ry=".31965" fill="#0064e0"/><ellipse cx="13.477" cy="2.0073" rx=".31989" ry=".31965" fill="#0064e0"/></svg>
